<?xml version="1.0" encoding="utf-8"?>
<!-- Generator: Adobe Illustrator 23.0.1, SVG Export Plug-In . SVG Version: 6.00 Build 0)  -->
<svg version="1.1" xmlns="http://www.w3.org/2000/svg" xmlns:xlink="http://www.w3.org/1999/xlink" x="0px" y="0px"
	 viewBox="0 0 792 612" style="enable-background:new 0 0 792 612;" xml:space="preserve">
<style type="text/css">
	.st0{fill:#FFFFFF;}
	.st1{fill:none;stroke:#000000;stroke-miterlimit:10;}
	.st2{fill:#E7B374;}
	.st3{fill:#E7B374;stroke:#000000;stroke-miterlimit:10;}
	.st4{fill:#FFFFFF;stroke:#000000;stroke-miterlimit:10;}
	.st5{fill:none;}
	.st6{font-family:'Noteworthy-Light';}
	.st7{font-size:70.7313px;}
	.st8{letter-spacing:3.2;}
	.st9{fill:none;stroke:#000000;stroke-width:3;stroke-miterlimit:10;}
	.st10{font-family:'Avenir-Roman';}
	.st11{font-size:24px;}
	.st12{fill:none;stroke:#000000;stroke-width:2;stroke-miterlimit:10;}
	.st13{fill:#E0976A;}
	.st14{fill:#99B9AD;}
	.st15{font-size:45px;}
	.st16{display:none;}
	.st17{display:inline;fill:#FFFFFF;}
	.st18{display:inline;}
	.st19{display:inline;fill:#99B9AD;}
	.st20{display:inline;fill:#E7B374;}
	.st21{display:inline;fill:none;}
	.st22{display:inline;stroke:#000000;stroke-width:3;stroke-miterlimit:10;}
	.st23{font-size:71.6039px;}
</style>
<g id="Layer_1">
	<rect x="0.5" y="1.2" class="st0" width="792" height="612"/>
	<g>
		<line class="st1" x1="253" y1="399.4" x2="264" y2="390.6"/>
		<line class="st1" x1="253" y1="413.4" x2="278.3" y2="389.2"/>
		<line class="st1" x1="253.5" y1="425.4" x2="290.1" y2="390.6"/>
		<line class="st1" x1="253.6" y1="437.2" x2="304.9" y2="390.6"/>
		<line class="st1" x1="253.2" y1="448" x2="319.1" y2="388.1"/>
		<line class="st1" x1="253" y1="462.4" x2="332.8" y2="388.1"/>
		<line class="st1" x1="265.9" y1="460.9" x2="344.1" y2="389.8"/>
		<line class="st1" x1="278.8" y1="460.9" x2="355.5" y2="391.2"/>
		<line class="st1" x1="291.9" y1="460.9" x2="368" y2="391.7"/>
		<line class="st1" x1="307.6" y1="459.4" x2="382.2" y2="391.5"/>
		<line class="st1" x1="387.4" y1="426.7" x2="429.2" y2="388.6"/>
		<line class="st1" x1="400" y1="426.7" x2="441.9" y2="388.6"/>
		<line class="st1" x1="398" y1="439.8" x2="455.1" y2="387.9"/>
		<line class="st1" x1="403.2" y1="459.4" x2="478.5" y2="390.9"/>
		<line class="st1" x1="414.6" y1="460.9" x2="492.9" y2="390.1"/>
		<line class="st1" x1="428.1" y1="461.4" x2="509" y2="387.9"/>
		<line class="st1" x1="443.5" y1="460.5" x2="516.9" y2="391.9"/>
		<line class="st1" x1="466.7" y1="462.4" x2="516.9" y2="415.3"/>
		<line class="st1" x1="453.7" y1="462.4" x2="516.7" y2="404.2"/>
		<line class="st1" x1="409.9" y1="441.2" x2="467" y2="389.2"/>
		<line class="st1" x1="317.1" y1="462.9" x2="391.8" y2="395"/>
		<line class="st1" x1="331.8" y1="460.2" x2="406.5" y2="392.4"/>
		<rect x="354.5" y="386.8" class="st2" width="60.2" height="75.1"/>
		<line class="st1" x1="493.8" y1="461.8" x2="517.3" y2="440.6"/>
		<line class="st1" x1="481.9" y1="460.9" x2="517.6" y2="428.4"/>
		<line class="st1" x1="505.9" y1="462.8" x2="516.8" y2="453.5"/>
		<rect x="253" y="386.8" class="st1" width="263.8" height="75.6"/>
	</g>
	<g>
		<g>
			<path class="st3" d="M375,174.4l-73.2-74c0,0-6.7-8.3-8.7-1.6c-2,6.7,3.2,14.8-4.4,22.8s-17.8,12-8.3,38.1
				c9.9,12.3,97.7,25.3,97.7,25.3L375,174.4z"/>
			<path class="st4" d="M378.1,174.6c0,0-18.9-34.3-35.2-50.3c-16.2-15.9-39.2-33.9-45.1-30.7s-2,12.7,13.4,28.6s34,38.4,45.5,44.2
				C368.3,172.1,378.1,174.6,378.1,174.6z"/>
			<path class="st3" d="M386.1,181.5c0,0,77.8-88.4,82.8-85.2c4.9,3.1,5.7,17.9,7.1,22.2s9.6,8.5,13.4,17.8s3.3,18.3-4.6,24.1
				s-47.8,19.4-68.1,21.2C396.4,183.2,386.1,181.5,386.1,181.5z"/>
			<path class="st4" d="M386.1,177.5c0,0,4.6-26.1,36.6-55.8s41.5-30.2,45.1-28.5s6.3,9.9-9.3,25s-27.9,27.6-41.5,37.4
				C403.2,165.5,386.1,177.5,386.1,177.5z"/>
			<circle class="st3" cx="381.3" cy="174.6" r="10.9"/>
		</g>
		<g>
			<line class="st1" x1="253" y1="190.4" x2="264" y2="181.6"/>
			<line class="st1" x1="253" y1="204.4" x2="274.1" y2="184.3"/>
			<line class="st1" x1="255.7" y1="212.8" x2="288.5" y2="181.6"/>
			<line class="st1" x1="260.6" y1="221.8" x2="304.9" y2="181.6"/>
			<line class="st1" x1="272.1" y1="221.8" x2="316.3" y2="181.6"/>
			<line class="st1" x1="286.6" y1="221.1" x2="328.5" y2="183"/>
			<line class="st1" x1="300.5" y1="220.5" x2="342.4" y2="182.4"/>
			<line class="st1" x1="313.6" y1="220.2" x2="355.5" y2="182.2"/>
			<line class="st1" x1="326.1" y1="220.8" x2="368" y2="182.7"/>
			<line class="st1" x1="340.3" y1="220.6" x2="382.2" y2="182.5"/>
			<line class="st1" x1="385" y1="219.8" x2="426.9" y2="181.7"/>
			<line class="st1" x1="396.5" y1="220.9" x2="438.4" y2="182.8"/>
			<line class="st1" x1="408" y1="221.7" x2="449.9" y2="183.7"/>
			<line class="st1" x1="436.6" y1="220" x2="478.5" y2="181.9"/>
			<line class="st1" x1="450" y1="220.1" x2="491.9" y2="182"/>
			<line class="st1" x1="464" y1="219.8" x2="505.8" y2="181.7"/>
			<line class="st1" x1="475" y1="221" x2="516.9" y2="182.9"/>
			<line class="st1" x1="500.3" y1="221.3" x2="516.8" y2="206.3"/>
			<line class="st1" x1="488.2" y1="221" x2="516.7" y2="195.2"/>
			<line class="st1" x1="423.2" y1="221.3" x2="465.1" y2="183.2"/>
			<rect x="354.4" y="180.2" class="st2" width="60.2" height="41.6"/>
			<rect x="253" y="181.6" class="st1" width="263.8" height="40.2"/>
		</g>
	</g>
	<rect x="303.2" y="257.4" class="st5" width="205.3" height="67.9"/>
	<text transform="matrix(1.24 0 0 1 303.2256 317.6924)" class="st6 st7 st8">Gifts</text>
	<text transform="matrix(1.24 0 0 1 303.2256 318.6924)" class="st9 st6 st7 st8">Gifts</text>
	<text transform="matrix(1 0 0 1 259.2554 246.1175)" class="st10 st11">WHAT</text>
	<g>
		<line class="st12" x1="591.2" y1="276.5" x2="594.2" y2="273.2"/>
		<line class="st12" x1="586.3" y1="283.3" x2="589.3" y2="280"/>
		<line class="st12" x1="594.3" y1="281.5" x2="598.4" y2="283.2"/>
		<line class="st12" x1="591.8" y1="282.5" x2="591.8" y2="286.9"/>
		<line class="st12" x1="594.1" y1="278.2" x2="598.6" y2="278.2"/>
		<line class="st12" x1="583.4" y1="278.2" x2="588.5" y2="278.2"/>
		<line class="st12" x1="587.4" y1="273.3" x2="589.5" y2="275.8"/>
	</g>
	<g>
		<line class="st12" x1="582.9" y1="412.3" x2="585.9" y2="409"/>
		<line class="st12" x1="578" y1="419.1" x2="581" y2="415.8"/>
		<line class="st12" x1="586" y1="417.2" x2="590.1" y2="419"/>
		<line class="st12" x1="583.5" y1="418.2" x2="583.5" y2="422.7"/>
		<line class="st12" x1="585.8" y1="414" x2="590.2" y2="414"/>
		<line class="st12" x1="575" y1="414" x2="580.1" y2="414"/>
		<line class="st12" x1="579" y1="409.1" x2="581.1" y2="411.5"/>
	</g>
	<g>
		<line class="st12" x1="494.1" y1="514.3" x2="497.1" y2="511.1"/>
		<line class="st12" x1="489.1" y1="521.2" x2="492.2" y2="517.9"/>
		<line class="st12" x1="497.2" y1="519.3" x2="501.3" y2="521.1"/>
		<line class="st12" x1="494.7" y1="520.3" x2="494.7" y2="524.8"/>
		<line class="st12" x1="497" y1="516.1" x2="501.4" y2="516.1"/>
		<line class="st12" x1="486.2" y1="516.1" x2="491.3" y2="516.1"/>
		<line class="st12" x1="490.2" y1="511.2" x2="492.3" y2="513.6"/>
	</g>
	<g>
		<line class="st12" x1="318.1" y1="505.4" x2="321.1" y2="502.1"/>
		<line class="st12" x1="313.2" y1="512.2" x2="316.2" y2="509"/>
		<line class="st12" x1="321.2" y1="510.4" x2="325.3" y2="512.2"/>
		<line class="st12" x1="318.7" y1="511.4" x2="318.7" y2="515.8"/>
		<line class="st12" x1="321" y1="507.1" x2="325.5" y2="507.1"/>
		<line class="st12" x1="310.3" y1="507.1" x2="315.4" y2="507.1"/>
		<line class="st12" x1="314.3" y1="502.2" x2="316.4" y2="504.7"/>
	</g>
	<g>
		<line class="st12" x1="190.2" y1="434" x2="193.2" y2="430.7"/>
		<line class="st12" x1="185.3" y1="440.8" x2="188.3" y2="437.5"/>
		<line class="st12" x1="193.3" y1="439" x2="197.4" y2="440.7"/>
		<line class="st12" x1="190.8" y1="440" x2="190.8" y2="444.4"/>
		<line class="st12" x1="193.1" y1="435.7" x2="197.6" y2="435.7"/>
		<line class="st12" x1="182.3" y1="435.7" x2="187.4" y2="435.7"/>
		<line class="st12" x1="186.3" y1="430.8" x2="188.4" y2="433.3"/>
	</g>
	<g>
		<line class="st12" x1="223.4" y1="344" x2="226.4" y2="340.7"/>
		<line class="st12" x1="218.5" y1="350.8" x2="221.5" y2="347.5"/>
		<line class="st12" x1="226.5" y1="348.9" x2="230.6" y2="350.7"/>
		<line class="st12" x1="224" y1="349.9" x2="224" y2="354.4"/>
		<line class="st12" x1="226.3" y1="345.7" x2="230.8" y2="345.7"/>
		<line class="st12" x1="215.5" y1="345.7" x2="220.6" y2="345.7"/>
		<line class="st12" x1="219.5" y1="340.8" x2="221.6" y2="343.3"/>
	</g>
	<g>
		<line class="st12" x1="166.7" y1="254.2" x2="169.7" y2="250.9"/>
		<line class="st12" x1="161.8" y1="261" x2="164.8" y2="257.7"/>
		<line class="st12" x1="169.8" y1="259.2" x2="173.9" y2="260.9"/>
		<line class="st12" x1="167.3" y1="260.2" x2="167.3" y2="264.6"/>
		<line class="st12" x1="169.6" y1="255.9" x2="174.1" y2="255.9"/>
		<line class="st12" x1="158.8" y1="255.9" x2="164" y2="255.9"/>
		<line class="st12" x1="162.9" y1="251" x2="165" y2="253.5"/>
	</g>
	<g>
		<line class="st12" x1="238.9" y1="163.7" x2="242" y2="160.4"/>
		<line class="st12" x1="234" y1="170.5" x2="237.1" y2="167.2"/>
		<line class="st12" x1="242" y1="168.6" x2="246.1" y2="170.4"/>
		<line class="st12" x1="239.5" y1="169.6" x2="239.5" y2="174.1"/>
		<line class="st12" x1="241.8" y1="165.4" x2="246.3" y2="165.4"/>
		<line class="st12" x1="231.1" y1="165.4" x2="236.2" y2="165.4"/>
		<line class="st12" x1="235.1" y1="160.5" x2="237.2" y2="163"/>
	</g>
	<g>
		<line class="st12" x1="555.3" y1="141.1" x2="558.4" y2="137.8"/>
		<line class="st12" x1="550.4" y1="148" x2="553.4" y2="144.7"/>
		<line class="st12" x1="558.4" y1="146.1" x2="562.5" y2="147.9"/>
		<line class="st12" x1="555.9" y1="147.1" x2="555.9" y2="151.6"/>
		<line class="st12" x1="558.2" y1="142.8" x2="562.7" y2="142.8"/>
		<line class="st12" x1="547.5" y1="142.8" x2="552.6" y2="142.8"/>
		<line class="st12" x1="551.5" y1="137.9" x2="553.6" y2="140.4"/>
	</g>
	<g>
		<circle class="st13" cx="347.8" cy="496.7" r="2.8"/>
		<circle class="st13" cx="363.6" cy="528.4" r="2.8"/>
		<circle class="st13" cx="280.6" cy="172.8" r="2.8"/>
		
			<ellipse transform="matrix(0.7071 -0.7071 0.7071 0.7071 38.6375 407.6629)" class="st13" cx="511.4" cy="157.2" rx="2.8" ry="2.8"/>
		<circle class="st13" cx="570.9" cy="160.1" r="2.8"/>
		<circle class="st13" cx="568" cy="366" r="2.8"/>
		<circle class="st13" cx="214.7" cy="304.4" r="2.8"/>
		<circle class="st13" cx="179.2" cy="462.5" r="2.8"/>
		<circle class="st13" cx="198.5" cy="414.2" r="1.8"/>
		<circle class="st13" cx="454.5" cy="479.9" r="1.8"/>
		<circle class="st13" cx="210.4" cy="286.5" r="1.8"/>
	</g>
	<g>
		<line class="st12" x1="174.3" y1="357.3" x2="177.4" y2="354"/>
		<line class="st12" x1="169.4" y1="364.1" x2="172.4" y2="360.8"/>
		<line class="st12" x1="177.4" y1="362.3" x2="181.5" y2="364"/>
		<line class="st12" x1="174.9" y1="363.3" x2="174.9" y2="367.7"/>
		<line class="st12" x1="177.2" y1="359" x2="181.7" y2="359"/>
		<line class="st12" x1="166.5" y1="359" x2="171.6" y2="359"/>
		<line class="st12" x1="170.5" y1="354.1" x2="172.6" y2="356.6"/>
	</g>
	<g>
		<circle class="st14" cx="555.4" cy="348.9" r="2.8"/>
		<circle class="st14" cx="583.9" cy="311" r="2.8"/>
		<circle class="st14" cx="247.2" cy="455.7" r="2.8"/>
		<circle class="st14" cx="234.7" cy="296.3" r="2.8"/>
		<circle class="st14" cx="141.3" cy="330.6" r="2.8"/>
		<circle class="st14" cx="184.9" cy="171.9" r="2.8"/>
		<circle class="st14" cx="385.3" cy="139.9" r="2.8"/>
		<circle class="st14" cx="383.4" cy="496.6" r="2.8"/>
		<circle class="st14" cx="547.8" cy="474.1" r="2.8"/>
		<circle class="st14" cx="553" cy="422.8" r="1.8"/>
		<circle class="st14" cx="221.3" cy="421.4" r="1.8"/>
		<circle class="st14" cx="181.7" cy="220" r="2.8"/>
		<circle class="st14" cx="234.2" cy="236.7" r="2.8"/>
		<circle class="st14" cx="555.9" cy="220" r="2.8"/>
	</g>
	<text transform="matrix(1 0 0 1 253.0005 371.4746)" class="st10 st15">should I buy?</text>
	<rect x="886.9" y="147" class="st14" width="108.9" height="127.9"/>
</g>
<g id="Layer_3" class="st16">
	<rect x="-0.3" y="0" class="st17" width="792" height="612"/>
	<g class="st18">
		<line class="st12" x1="573.6" y1="263.6" x2="576.6" y2="260.3"/>
		<line class="st12" x1="568.8" y1="270.3" x2="571.8" y2="267.1"/>
		<line class="st12" x1="576.7" y1="268.5" x2="580.8" y2="270.2"/>
		<line class="st12" x1="574.2" y1="269.5" x2="574.2" y2="273.9"/>
		<line class="st12" x1="576.5" y1="265.3" x2="581" y2="265.3"/>
		<line class="st12" x1="565.8" y1="265.3" x2="570.9" y2="265.3"/>
		<line class="st12" x1="569.8" y1="260.4" x2="571.9" y2="262.8"/>
	</g>
	<g class="st18">
		<line class="st12" x1="565.3" y1="395.2" x2="568.4" y2="392"/>
		<line class="st12" x1="560.5" y1="402" x2="563.5" y2="398.7"/>
		<line class="st12" x1="568.4" y1="400.1" x2="572.5" y2="401.9"/>
		<line class="st12" x1="566" y1="401.1" x2="566" y2="405.5"/>
		<line class="st12" x1="568.2" y1="396.9" x2="572.7" y2="396.9"/>
		<line class="st12" x1="557.6" y1="396.9" x2="562.6" y2="396.9"/>
		<line class="st12" x1="561.5" y1="392" x2="563.6" y2="394.5"/>
	</g>
	<g class="st18">
		<line class="st12" x1="482" y1="500.8" x2="485" y2="497.5"/>
		<line class="st12" x1="477.1" y1="507.5" x2="480.2" y2="504.3"/>
		<line class="st12" x1="485.1" y1="505.7" x2="489.2" y2="507.5"/>
		<line class="st12" x1="482.6" y1="506.7" x2="482.6" y2="511.1"/>
		<line class="st12" x1="484.9" y1="502.5" x2="489.3" y2="502.5"/>
		<line class="st12" x1="474.2" y1="502.5" x2="479.3" y2="502.5"/>
		<line class="st12" x1="478.2" y1="497.6" x2="480.3" y2="500.1"/>
	</g>
	<g class="st18">
		<line class="st12" x1="307.6" y1="491.9" x2="310.6" y2="488.7"/>
		<line class="st12" x1="302.7" y1="498.7" x2="305.7" y2="495.4"/>
		<line class="st12" x1="310.6" y1="496.8" x2="314.7" y2="498.6"/>
		<line class="st12" x1="308.2" y1="497.8" x2="308.2" y2="502.3"/>
		<line class="st12" x1="310.5" y1="493.6" x2="314.9" y2="493.6"/>
		<line class="st12" x1="299.8" y1="493.6" x2="304.9" y2="493.6"/>
		<line class="st12" x1="303.8" y1="488.8" x2="305.9" y2="491.2"/>
	</g>
	<g class="st18">
		<line class="st12" x1="176" y1="419.7" x2="179" y2="416.5"/>
		<line class="st12" x1="171.1" y1="426.5" x2="174.2" y2="423.2"/>
		<line class="st12" x1="179.1" y1="424.6" x2="183.2" y2="426.4"/>
		<line class="st12" x1="176.6" y1="425.6" x2="176.6" y2="430.1"/>
		<line class="st12" x1="178.9" y1="421.4" x2="183.3" y2="421.4"/>
		<line class="st12" x1="168.2" y1="421.4" x2="173.3" y2="421.4"/>
		<line class="st12" x1="172.2" y1="416.6" x2="174.3" y2="419"/>
	</g>
	<g class="st18">
		<line class="st12" x1="227.5" y1="323.7" x2="230.5" y2="320.4"/>
		<line class="st12" x1="222.6" y1="330.4" x2="225.6" y2="327.2"/>
		<line class="st12" x1="230.6" y1="328.6" x2="234.6" y2="330.4"/>
		<line class="st12" x1="228.1" y1="329.6" x2="228.1" y2="334"/>
		<line class="st12" x1="230.4" y1="325.4" x2="234.8" y2="325.4"/>
		<line class="st12" x1="219.7" y1="325.4" x2="224.8" y2="325.4"/>
		<line class="st12" x1="223.7" y1="320.5" x2="225.8" y2="323"/>
	</g>
	<g class="st18">
		<line class="st12" x1="152.7" y1="241.5" x2="155.7" y2="238.2"/>
		<line class="st12" x1="147.9" y1="248.2" x2="150.9" y2="245"/>
		<line class="st12" x1="155.8" y1="246.4" x2="159.9" y2="248.2"/>
		<line class="st12" x1="153.4" y1="247.4" x2="153.4" y2="251.8"/>
		<line class="st12" x1="155.6" y1="243.2" x2="160.1" y2="243.2"/>
		<line class="st12" x1="145" y1="243.2" x2="150" y2="243.2"/>
		<line class="st12" x1="148.9" y1="238.3" x2="151" y2="240.8"/>
	</g>
	<g class="st18">
		<line class="st12" x1="224.4" y1="151.7" x2="227.4" y2="148.5"/>
		<line class="st12" x1="219.5" y1="158.5" x2="222.5" y2="155.2"/>
		<line class="st12" x1="227.4" y1="156.6" x2="231.5" y2="158.4"/>
		<line class="st12" x1="225" y1="157.6" x2="225" y2="162.1"/>
		<line class="st12" x1="227.2" y1="153.4" x2="231.7" y2="153.4"/>
		<line class="st12" x1="216.6" y1="153.4" x2="221.6" y2="153.4"/>
		<line class="st12" x1="220.5" y1="148.6" x2="222.6" y2="151"/>
	</g>
	<g class="st18">
		<line class="st12" x1="538" y1="129.4" x2="541" y2="126.1"/>
		<line class="st12" x1="533.2" y1="136.1" x2="536.2" y2="132.9"/>
		<line class="st12" x1="541.1" y1="134.3" x2="545.2" y2="136"/>
		<line class="st12" x1="538.6" y1="135.3" x2="538.6" y2="139.7"/>
		<line class="st12" x1="540.9" y1="131.1" x2="545.4" y2="131.1"/>
		<line class="st12" x1="530.2" y1="131.1" x2="535.3" y2="131.1"/>
		<line class="st12" x1="534.2" y1="126.2" x2="536.3" y2="128.6"/>
	</g>
	<circle class="st19" cx="538.1" cy="315.6" r="2.8"/>
	<circle class="st19" cx="566.4" cy="294.8" r="2.8"/>
	<circle class="st19" cx="232.6" cy="441.2" r="2.8"/>
	<circle class="st19" cx="220.1" cy="283.2" r="2.8"/>
	
		<ellipse transform="matrix(0.9806 -0.1961 0.1961 0.9806 -59.729 31.1837)" class="st19" cx="127.6" cy="317.2" rx="2.8" ry="2.8"/>
	<circle class="st19" cx="170.8" cy="159.8" r="2.8"/>
	<circle class="st19" cx="369.5" cy="128.1" r="2.8"/>
	<circle class="st19" cx="372.3" cy="483.2" r="2.8"/>
	<circle class="st19" cx="532.8" cy="491" r="2.8"/>
	<circle class="st20" cx="337" cy="483.3" r="2.8"/>
	<circle class="st20" cx="352.7" cy="514.8" r="2.8"/>
	<circle class="st20" cx="265.6" cy="160.7" r="2.8"/>
	<circle class="st20" cx="423.4" cy="175.6" r="2.8"/>
	<circle class="st20" cx="405.8" cy="78.6" r="2.8"/>
	<circle class="st20" cx="553.5" cy="148.1" r="2.8"/>
	<circle class="st20" cx="550.6" cy="349.4" r="2.8"/>
	<circle class="st20" cx="200.4" cy="291.2" r="2.8"/>
	<circle class="st20" cx="165.1" cy="448" r="2.8"/>
	<circle class="st19" cx="538" cy="440.1" r="1.8"/>
	<circle class="st19" cx="206.9" cy="407.3" r="1.8"/>
	<circle class="st20" cx="184.3" cy="400.1" r="1.8"/>
	<circle class="st20" cx="442.8" cy="466.6" r="1.8"/>
	<circle class="st20" cx="196.1" cy="273.5" r="1.8"/>
	<g class="st18">
		<line class="st12" x1="160.3" y1="343.7" x2="163.3" y2="340.4"/>
		<line class="st12" x1="155.4" y1="350.4" x2="158.4" y2="347.2"/>
		<line class="st12" x1="163.4" y1="348.6" x2="167.4" y2="350.4"/>
		<line class="st12" x1="160.9" y1="349.6" x2="160.9" y2="354"/>
		<line class="st12" x1="163.2" y1="345.4" x2="167.6" y2="345.4"/>
		<line class="st12" x1="152.5" y1="345.4" x2="157.6" y2="345.4"/>
		<line class="st12" x1="156.5" y1="340.5" x2="158.6" y2="343"/>
	</g>
	<g class="st18">
		<line class="st12" x1="375.3" y1="177.6" x2="378.3" y2="174.4"/>
		<line class="st12" x1="370.5" y1="184.4" x2="373.5" y2="181.2"/>
		<line class="st12" x1="378.4" y1="182.6" x2="382.5" y2="184.3"/>
		<line class="st12" x1="375.9" y1="183.6" x2="375.9" y2="188"/>
		<line class="st12" x1="378.2" y1="179.3" x2="382.7" y2="179.3"/>
		<line class="st12" x1="367.5" y1="179.3" x2="372.6" y2="179.3"/>
		<line class="st12" x1="371.5" y1="174.5" x2="373.6" y2="176.9"/>
	</g>
	<g class="st18">
		<g>
			<path class="st3" d="M380.6,303l-72.8-73.6c0,0-6.7-8.3-8.7-1.6c-2,6.7,3.1,14.7-4.3,22.7c-7.5,8-17.7,11.9-8.3,37.8
				c9.8,12.2,97.2,25.2,97.2,25.2L380.6,303z"/>
			<path class="st4" d="M383.7,303.1c0,0-18.9-34.2-35-50c-16.1-15.8-38.9-33.8-44.8-30.5c-5.9,3.2-2,12.6,13.4,28.5
				s33.8,38.2,45.2,43.9C373.9,300.7,383.7,303.1,383.7,303.1z"/>
			<path class="st3" d="M391.7,309.9c0,0,77.5-87.9,82.4-84.8c4.9,3,5.7,17.8,7.1,22.1s9.5,8.5,13.4,17.7c3.8,9.2,3.2,18.2-4.6,23.9
				c-7.9,5.7-47.6,19.4-67.7,21.1C402,311.7,391.7,309.9,391.7,309.9z"/>
			<path class="st4" d="M391.7,306c0,0,4.5-26,36.4-55.5s41.4-30.1,44.9-28.3c3.5,1.8,6.3,9.9-9.2,24.9
				c-15.5,14.9-27.7,27.4-41.4,37.3C408.7,294.1,391.7,306,391.7,306z"/>
			<circle class="st3" cx="386.9" cy="303.1" r="10.8"/>
		</g>
		<g>
			<line class="st1" x1="259.3" y1="318.9" x2="270.2" y2="310.1"/>
			<line class="st1" x1="259.3" y1="332.7" x2="283" y2="310.1"/>
			<line class="st1" x1="259.3" y1="342.3" x2="293.1" y2="310.1"/>
			<line class="st1" x1="259.3" y1="356.2" x2="309.9" y2="310.1"/>
			<line class="st1" x1="259.8" y1="366.5" x2="321.8" y2="310.1"/>
			<line class="st1" x1="259.8" y1="379.5" x2="334.4" y2="311.6"/>
			<line class="st1" x1="261.5" y1="389.6" x2="348.1" y2="310.9"/>
			<line class="st1" x1="274.6" y1="389.5" x2="361.2" y2="310.6"/>
			<line class="st1" x1="287.3" y1="389.7" x2="373.7" y2="311.2"/>
			<line class="st1" x1="301.3" y1="389.6" x2="387.9" y2="311"/>
			<line class="st1" x1="344.6" y1="389.9" x2="432.3" y2="310.2"/>
			<line class="st1" x1="402" y1="349.2" x2="443.7" y2="311.3"/>
			<line class="st1" x1="413.5" y1="350" x2="455.2" y2="312.1"/>
			<line class="st1" x1="413.5" y1="374.2" x2="483.6" y2="310.4"/>
			<line class="st1" x1="418.7" y1="381.7" x2="496.9" y2="310.5"/>
			<line class="st1" x1="424.3" y1="388.8" x2="510.8" y2="310.2"/>
			<line class="st1" x1="436" y1="389.6" x2="521.8" y2="311.4"/>
			<line class="st1" x1="461.4" y1="389.6" x2="521.7" y2="334.7"/>
			<line class="st1" x1="448.6" y1="390.1" x2="521.6" y2="323.6"/>
			<line class="st1" x1="416.1" y1="361.1" x2="470.3" y2="311.7"/>
			<line class="st1" x1="488.6" y1="389.6" x2="521.7" y2="359.4"/>
			<line class="st1" x1="475.7" y1="390.1" x2="521.6" y2="348.3"/>
			<line class="st1" x1="500.7" y1="389.6" x2="521.8" y2="370.3"/>
			<line class="st1" x1="316.9" y1="389.6" x2="362.2" y2="348.3"/>
			<line class="st1" x1="328.9" y1="389.6" x2="362.1" y2="359.4"/>
			<rect x="360.1" y="310.2" class="st2" width="59.9" height="78.8"/>
			<rect x="259.3" y="310.1" class="st1" width="262.6" height="79.6"/>
		</g>
	</g>
</g>
<g id="Layer_2" class="st16">
	<rect y="0" class="st17" width="792" height="612"/>
	<g class="st18">
		<line class="st1" x1="253.8" y1="400.3" x2="264.7" y2="391.4"/>
		<line class="st1" x1="253.8" y1="414.2" x2="278.9" y2="390.2"/>
		<line class="st1" x1="254.2" y1="426.1" x2="290.6" y2="391.4"/>
		<line class="st1" x1="254.3" y1="437.9" x2="305.4" y2="391.4"/>
		<line class="st1" x1="253.9" y1="448.7" x2="319.5" y2="389"/>
		<line class="st1" x1="253.8" y1="463" x2="333.1" y2="389"/>
		<line class="st1" x1="266.6" y1="461.4" x2="344.4" y2="390.8"/>
		<line class="st1" x1="279.3" y1="461.4" x2="355.7" y2="392"/>
		<line class="st1" x1="292.4" y1="461.4" x2="368.2" y2="392.6"/>
		<line class="st1" x1="308" y1="460" x2="382.4" y2="392.4"/>
		<line class="st1" x1="387.5" y1="427.4" x2="429.1" y2="389.6"/>
		<line class="st1" x1="400.1" y1="427.4" x2="441.7" y2="389.6"/>
		<line class="st1" x1="398.1" y1="440.5" x2="454.9" y2="388.8"/>
		<line class="st1" x1="403.2" y1="460" x2="478.1" y2="391.8"/>
		<line class="st1" x1="414.6" y1="461.4" x2="492.5" y2="391"/>
		<line class="st1" x1="428" y1="462" x2="508.5" y2="388.8"/>
		<line class="st1" x1="443.2" y1="461" x2="516.3" y2="392.8"/>
		<line class="st1" x1="466.3" y1="463" x2="516.3" y2="416.1"/>
		<line class="st1" x1="453.5" y1="463" x2="516.1" y2="405"/>
		<line class="st1" x1="409.8" y1="441.9" x2="466.6" y2="390.2"/>
		<line class="st1" x1="317.6" y1="463.5" x2="391.9" y2="396"/>
		<line class="st1" x1="332.2" y1="460.8" x2="406.4" y2="393.3"/>
		<rect x="354.7" y="387.7" class="st2" width="59.9" height="74.7"/>
		<line class="st1" x1="493.3" y1="462.4" x2="516.7" y2="441.3"/>
		<line class="st1" x1="481.5" y1="461.5" x2="517.1" y2="429.2"/>
		<line class="st1" x1="505.4" y1="463.4" x2="516.2" y2="454.1"/>
		<rect x="253.8" y="387.7" class="st1" width="262.6" height="75.3"/>
	</g>
	<g class="st18">
		<g>
			<path class="st3" d="M374,237.9l-72.8-73.6c0,0-6.7-8.3-8.7-1.6c-2,6.7,3.1,14.7-4.3,22.7c-7.5,8-17.7,11.9-8.3,37.8
				c9.8,12.2,97.2,25.2,97.2,25.2L374,237.9z"/>
			<path class="st4" d="M377.1,238c0,0-18.9-34.2-35-50c-16.1-15.8-38.9-33.8-44.8-30.5c-5.9,3.2-2,12.6,13.4,28.5
				s33.8,38.2,45.2,43.9C367.3,235.6,377.1,238,377.1,238z"/>
			<path class="st3" d="M385.1,244.9c0,0,77.5-87.9,82.4-84.8c4.9,3,5.7,17.8,7.1,22.1c1.4,4.3,9.5,8.5,13.4,17.7
				c3.8,9.2,3.2,18.2-4.6,23.9c-7.9,5.7-47.6,19.4-67.7,21.1C395.4,246.6,385.1,244.9,385.1,244.9z"/>
			<path class="st4" d="M385.1,240.9c0,0,4.5-26,36.4-55.5s41.4-30.1,44.9-28.3c3.5,1.8,6.3,9.9-9.2,24.9
				c-15.5,14.9-27.7,27.4-41.4,37.3S385.1,240.9,385.1,240.9z"/>
			<circle class="st3" cx="380.3" cy="238" r="10.8"/>
		</g>
		<g>
			<line class="st1" x1="252.7" y1="253.8" x2="263.6" y2="245.1"/>
			<line class="st1" x1="252.7" y1="267.7" x2="273.6" y2="247.7"/>
			<line class="st1" x1="255.4" y1="276.1" x2="288" y2="245.1"/>
			<line class="st1" x1="260.3" y1="285.1" x2="304.2" y2="245.1"/>
			<line class="st1" x1="271.7" y1="285.1" x2="315.7" y2="245.1"/>
			<line class="st1" x1="286.1" y1="284.4" x2="327.8" y2="246.4"/>
			<line class="st1" x1="299.9" y1="283.7" x2="341.6" y2="245.8"/>
			<line class="st1" x1="313" y1="283.5" x2="354.6" y2="245.6"/>
			<line class="st1" x1="325.4" y1="284" x2="367.1" y2="246.1"/>
			<line class="st1" x1="339.6" y1="283.8" x2="381.3" y2="245.9"/>
			<line class="st1" x1="384" y1="283" x2="425.7" y2="245.2"/>
			<line class="st1" x1="395.4" y1="284.1" x2="437.1" y2="246.2"/>
			<line class="st1" x1="406.9" y1="285" x2="448.6" y2="247"/>
			<line class="st1" x1="435.3" y1="283.3" x2="477" y2="245.4"/>
			<line class="st1" x1="448.7" y1="283.3" x2="490.3" y2="245.5"/>
			<line class="st1" x1="462.6" y1="283" x2="504.3" y2="245.2"/>
			<line class="st1" x1="473.6" y1="284.3" x2="515.3" y2="246.3"/>
			<line class="st1" x1="498.7" y1="284.6" x2="515.2" y2="269.6"/>
			<line class="st1" x1="486.8" y1="284.3" x2="515.1" y2="258.5"/>
			<line class="st1" x1="422.1" y1="284.6" x2="463.8" y2="246.6"/>
			<rect x="353.6" y="243.7" class="st2" width="59.9" height="41.4"/>
			<rect x="252.7" y="245.1" class="st1" width="262.6" height="40"/>
		</g>
	</g>
	<rect x="295.3" y="307.5" class="st21" width="150.4" height="68.8"/>
	<text transform="matrix(1.24 0 0 1 295.3164 378.5779)" class="st22 st6 st23 st8">Gifts</text>
	<g class="st18">
		<line class="st12" x1="573.6" y1="264.4" x2="576.6" y2="261.1"/>
		<line class="st12" x1="568.7" y1="271.2" x2="571.7" y2="267.9"/>
		<line class="st12" x1="576.7" y1="269.3" x2="580.8" y2="271.1"/>
		<line class="st12" x1="574.2" y1="270.3" x2="574.2" y2="274.8"/>
		<line class="st12" x1="576.5" y1="266.1" x2="581" y2="266.1"/>
		<line class="st12" x1="565.7" y1="266.1" x2="570.8" y2="266.1"/>
		<line class="st12" x1="569.7" y1="261.2" x2="571.8" y2="263.6"/>
	</g>
	<g class="st18">
		<line class="st12" x1="565.2" y1="397.1" x2="568.2" y2="393.9"/>
		<line class="st12" x1="560.3" y1="404" x2="563.3" y2="400.7"/>
		<line class="st12" x1="568.3" y1="402.1" x2="572.4" y2="403.9"/>
		<line class="st12" x1="565.8" y1="403.1" x2="565.8" y2="407.6"/>
		<line class="st12" x1="568.1" y1="398.9" x2="572.6" y2="398.9"/>
		<line class="st12" x1="557.4" y1="398.9" x2="562.5" y2="398.9"/>
		<line class="st12" x1="561.4" y1="394" x2="563.5" y2="396.4"/>
	</g>
	<g class="st18">
		<line class="st12" x1="481.2" y1="503.6" x2="484.2" y2="500.3"/>
		<line class="st12" x1="476.3" y1="510.4" x2="479.3" y2="507.2"/>
		<line class="st12" x1="484.3" y1="508.6" x2="488.4" y2="510.4"/>
		<line class="st12" x1="481.8" y1="509.6" x2="481.8" y2="514.1"/>
		<line class="st12" x1="484.1" y1="505.3" x2="488.5" y2="505.3"/>
		<line class="st12" x1="473.3" y1="505.3" x2="478.4" y2="505.3"/>
		<line class="st12" x1="477.3" y1="500.4" x2="479.4" y2="502.9"/>
	</g>
	<g class="st18">
		<line class="st12" x1="305.2" y1="494.7" x2="308.2" y2="491.4"/>
		<line class="st12" x1="300.3" y1="501.5" x2="303.3" y2="498.2"/>
		<line class="st12" x1="308.3" y1="499.7" x2="312.4" y2="501.4"/>
		<line class="st12" x1="305.8" y1="500.7" x2="305.8" y2="505.1"/>
		<line class="st12" x1="308.1" y1="496.4" x2="312.6" y2="496.4"/>
		<line class="st12" x1="297.4" y1="496.4" x2="302.5" y2="496.4"/>
		<line class="st12" x1="301.4" y1="491.5" x2="303.5" y2="494"/>
	</g>
	<g class="st18">
		<line class="st12" x1="172.5" y1="421.9" x2="175.5" y2="418.6"/>
		<line class="st12" x1="167.6" y1="428.7" x2="170.6" y2="425.4"/>
		<line class="st12" x1="175.6" y1="426.8" x2="179.7" y2="428.6"/>
		<line class="st12" x1="173.1" y1="427.8" x2="173.1" y2="432.3"/>
		<line class="st12" x1="175.4" y1="423.6" x2="179.9" y2="423.6"/>
		<line class="st12" x1="164.7" y1="423.6" x2="169.8" y2="423.6"/>
		<line class="st12" x1="168.7" y1="418.7" x2="170.8" y2="421.1"/>
	</g>
	<g class="st18">
		<line class="st12" x1="224.4" y1="325" x2="227.5" y2="321.7"/>
		<line class="st12" x1="219.5" y1="331.8" x2="222.6" y2="328.5"/>
		<line class="st12" x1="227.5" y1="330" x2="231.6" y2="331.7"/>
		<line class="st12" x1="225" y1="331" x2="225" y2="335.4"/>
		<line class="st12" x1="227.3" y1="326.7" x2="231.8" y2="326.7"/>
		<line class="st12" x1="216.6" y1="326.7" x2="221.7" y2="326.7"/>
		<line class="st12" x1="220.6" y1="321.8" x2="222.7" y2="324.3"/>
	</g>
	<g class="st18">
		<line class="st12" x1="149" y1="242.1" x2="152.1" y2="238.8"/>
		<line class="st12" x1="144.1" y1="248.9" x2="147.2" y2="245.6"/>
		<line class="st12" x1="152.1" y1="247.1" x2="156.3" y2="248.8"/>
		<line class="st12" x1="149.7" y1="248.1" x2="149.7" y2="252.5"/>
		<line class="st12" x1="152" y1="243.8" x2="156.4" y2="243.8"/>
		<line class="st12" x1="141.2" y1="243.8" x2="146.3" y2="243.8"/>
		<line class="st12" x1="145.2" y1="238.9" x2="147.3" y2="241.4"/>
	</g>
	<g class="st18">
		<line class="st12" x1="221.3" y1="151.6" x2="224.3" y2="148.3"/>
		<line class="st12" x1="216.4" y1="158.4" x2="219.4" y2="155.1"/>
		<line class="st12" x1="224.4" y1="156.5" x2="228.5" y2="158.3"/>
		<line class="st12" x1="221.9" y1="157.5" x2="221.9" y2="162"/>
		<line class="st12" x1="224.2" y1="153.3" x2="228.7" y2="153.3"/>
		<line class="st12" x1="213.4" y1="153.3" x2="218.5" y2="153.3"/>
		<line class="st12" x1="217.4" y1="148.4" x2="219.5" y2="150.8"/>
	</g>
	<g class="st18">
		<line class="st12" x1="537.7" y1="129" x2="540.7" y2="125.7"/>
		<line class="st12" x1="532.8" y1="135.8" x2="535.8" y2="132.5"/>
		<line class="st12" x1="540.8" y1="134" x2="544.9" y2="135.7"/>
		<line class="st12" x1="538.3" y1="135" x2="538.3" y2="139.4"/>
		<line class="st12" x1="540.6" y1="130.7" x2="545.1" y2="130.7"/>
		<line class="st12" x1="529.8" y1="130.7" x2="534.9" y2="130.7"/>
		<line class="st12" x1="533.8" y1="125.8" x2="535.9" y2="128.3"/>
	</g>
	<circle class="st19" cx="537.8" cy="316.8" r="2.8"/>
	<circle class="st19" cx="566.3" cy="295.8" r="2.8"/>
	<circle class="st19" cx="229.6" cy="443.6" r="2.8"/>
	<circle class="st19" cx="217" cy="284.2" r="2.8"/>
	<circle class="st19" cx="123.7" cy="318.5" r="2.8"/>
	<circle class="st19" cx="167.2" cy="159.8" r="2.8"/>
	<circle class="st19" cx="367.7" cy="127.7" r="2.8"/>
	<circle class="st19" cx="370.5" cy="485.9" r="2.8"/>
	<circle class="st19" cx="532.4" cy="493.7" r="2.8"/>
	<circle class="st20" cx="334.9" cy="486" r="2.8"/>
	<circle class="st20" cx="350.7" cy="517.7" r="2.8"/>
	<circle class="st20" cx="262.9" cy="160.7" r="2.8"/>
	<circle class="st20" cx="422.1" cy="175.6" r="2.8"/>
	<circle class="st20" cx="404.3" cy="77.8" r="2.8"/>
	<circle class="st20" cx="553.2" cy="147.9" r="2.8"/>
	<circle class="st20" cx="550.4" cy="350.9" r="2.8"/>
	<circle class="st20" cx="197.1" cy="292.2" r="2.8"/>
	<circle class="st20" cx="161.5" cy="450.4" r="2.8"/>
	<circle class="st19" cx="537.6" cy="442.5" r="1.8"/>
	<circle class="st19" cx="203.7" cy="409.3" r="1.8"/>
	<circle class="st20" cx="180.8" cy="402.1" r="1.8"/>
	<circle class="st20" cx="441.6" cy="469.2" r="1.8"/>
	<circle class="st20" cx="192.8" cy="274.4" r="1.8"/>
	<g class="st18">
		<line class="st12" x1="156.7" y1="345.2" x2="159.7" y2="341.9"/>
		<line class="st12" x1="151.8" y1="352" x2="154.8" y2="348.7"/>
		<line class="st12" x1="159.8" y1="350.1" x2="163.9" y2="351.9"/>
		<line class="st12" x1="157.3" y1="351.1" x2="157.3" y2="355.6"/>
		<line class="st12" x1="159.6" y1="346.9" x2="164.1" y2="346.9"/>
		<line class="st12" x1="148.8" y1="346.9" x2="153.9" y2="346.9"/>
		<line class="st12" x1="152.8" y1="342" x2="154.9" y2="344.5"/>
	</g>
	<circle class="st19" cx="164.1" cy="207.9" r="2.8"/>
	<circle class="st19" cx="216.6" cy="224.6" r="2.8"/>
	<circle class="st19" cx="538.3" cy="207.9" r="2.8"/>
	<text transform="matrix(1 0 0 1 252.6995 306.0003)" class="st18 st10 st11">WHAT</text>
</g>
</svg>
