<?xml version="1.0" encoding="utf-8"?>
<!-- Generator: Adobe Illustrator 23.0.0, SVG Export Plug-In . SVG Version: 6.00 Build 0)  -->
<svg version="1.1" xmlns="http://www.w3.org/2000/svg" xmlns:xlink="http://www.w3.org/1999/xlink" x="0px" y="0px"
	 viewBox="0 0 792 612" style="enable-background:new 0 0 792 612;" xml:space="preserve">
<style type="text/css">
	.st0{display:none;}
	.st1{display:inline;}
	.st2{fill:#EF5F67;stroke:#000000;stroke-miterlimit:10;}
	.st3{fill:#FFFFFF;stroke:#000000;stroke-miterlimit:10;}
	.st4{fill:none;stroke:#000000;stroke-miterlimit:10;}
	.st5{fill:#EF5F67;}
	.st6{fill:none;stroke:#000000;stroke-width:2;stroke-miterlimit:10;}
	.st7{display:inline;fill:#00007C;}
	.st8{display:inline;fill:#EF5F67;}
	.st9{display:inline;fill:none;}
	.st10{display:inline;stroke:#000000;stroke-width:3;stroke-miterlimit:10;}
	.st11{font-family:'Noteworthy-Light';}
	.st12{font-size:71.6039px;}
	.st13{letter-spacing:4.8;}
	.st14{fill:#E7B374;}
	.st15{fill:#E7B374;stroke:#000000;stroke-miterlimit:10;}
	.st16{fill:none;}
	.st17{stroke:#000000;stroke-width:3;stroke-miterlimit:10;}
	.st18{font-size:70.7313px;}
	.st19{font-family:'Avenir-Roman';}
	.st20{font-size:24px;}
	.st21{fill:#E0976A;}
	.st22{fill:#99B9AD;}
	.st23{font-size:48px;}
</style>
<g id="Layer_1" class="st0">
	<g class="st1">
		<g>
			<path class="st2" d="M380.5,239.8L307,165.6c0,0-6.7-8.3-8.7-1.6s3.2,14.9-4.4,22.9c-7.5,8-17.9,12-8.3,38.2
				c9.9,12.3,98.1,25.4,98.1,25.4L380.5,239.8z"/>
			<path class="st3" d="M383.6,240c0,0-19-34.5-35.3-50.5s-39.3-34.1-45.3-30.8c-6,3.3-2,12.7,13.5,28.7s34.1,38.6,45.7,44.3
				C373.7,237.5,383.6,240,383.6,240z"/>
			<path class="st2" d="M391.6,246.9c0,0,78.1-88.7,83.1-85.6s5.8,17.9,7.1,22.3c1.4,4.4,9.6,8.5,13.4,17.8
				c3.8,9.3,3.3,18.4-4.7,24.1c-8,5.8-48,19.5-68.3,21.3C402,248.7,391.6,246.9,391.6,246.9z"/>
			<path class="st3" d="M391.6,242.9c0,0,4.6-26.2,36.7-56s41.7-30.3,45.3-28.6c3.6,1.7,6.3,10-9.3,25.1s-28,27.7-41.7,37.6
				C408.8,230.8,391.6,242.9,391.6,242.9z"/>
			<circle class="st2" cx="386.8" cy="240" r="10.9"/>
		</g>
		<line class="st4" x1="258.1" y1="255.9" x2="269.1" y2="247"/>
		<line class="st4" x1="258.1" y1="269.9" x2="279.2" y2="249.7"/>
		<line class="st4" x1="258.1" y1="280.9" x2="293.7" y2="247"/>
		<line class="st4" x1="258.1" y1="294.3" x2="310.1" y2="247"/>
		<line class="st4" x1="258.8" y1="304.1" x2="321.6" y2="247"/>
		<line class="st4" x1="259" y1="316.4" x2="335.4" y2="247"/>
		<line class="st4" x1="258.1" y1="329.4" x2="347.7" y2="247.8"/>
		<line class="st4" x1="257.7" y1="341.4" x2="359.9" y2="248.5"/>
		<line class="st4" x1="258.1" y1="353.1" x2="364.9" y2="255.9"/>
		<line class="st4" x1="258.1" y1="365.8" x2="387.7" y2="247.9"/>
		<line class="st4" x1="257.1" y1="404.3" x2="431.6" y2="247.1"/>
		<line class="st4" x1="258.1" y1="413.9" x2="444.1" y2="248.2"/>
		<line class="st4" x1="258.4" y1="423.2" x2="457.1" y2="247.7"/>
		<line class="st4" x1="258.1" y1="443.4" x2="479.6" y2="247.7"/>
		<line class="st4" x1="257.8" y1="454.6" x2="493.8" y2="247.7"/>
		<line class="st4" x1="263.6" y1="460.8" x2="511.8" y2="247.1"/>
		<line class="st4" x1="275.8" y1="461.8" x2="522.9" y2="249.4"/>
		<line class="st4" x1="311.5" y1="460.8" x2="522.8" y2="271.8"/>
		<line class="st4" x1="294.9" y1="460.8" x2="522.7" y2="260.7"/>
		<line class="st4" x1="258.1" y1="433.1" x2="468.1" y2="247"/>
		<line class="st4" x1="258.1" y1="380.7" x2="364.9" y2="283.5"/>
		<line class="st4" x1="258.1" y1="393.5" x2="387.7" y2="275.6"/>
		<line class="st4" x1="321.4" y1="461.4" x2="523" y2="288.9"/>
		<line class="st4" x1="357.1" y1="460.5" x2="522.9" y2="311.4"/>
		<line class="st4" x1="340.5" y1="460.5" x2="522.7" y2="300.2"/>
		<line class="st4" x1="374.8" y1="460.5" x2="522.8" y2="325.8"/>
		<line class="st4" x1="384.7" y1="461.1" x2="523" y2="342.9"/>
		<line class="st4" x1="420.3" y1="460.1" x2="522.8" y2="371.8"/>
		<line class="st4" x1="403.8" y1="460.1" x2="521.4" y2="360.7"/>
		<rect x="359.9" y="245.6" class="st5" width="60.4" height="215.2"/>
		<line class="st4" x1="434" y1="461.1" x2="523" y2="390.8"/>
		<line class="st4" x1="469.7" y1="460.1" x2="522.8" y2="420.1"/>
		<line class="st4" x1="453.1" y1="460.1" x2="522.8" y2="406.1"/>
		<line class="st4" x1="504.5" y1="460.8" x2="522.8" y2="447.8"/>
		<line class="st4" x1="488" y1="460.8" x2="522.8" y2="433.8"/>
		<rect x="258.1" y="247" class="st4" width="264.8" height="213.8"/>
	</g>
	<g class="st1">
		<line class="st6" x1="573.6" y1="263.6" x2="576.6" y2="260.3"/>
		<line class="st6" x1="568.8" y1="270.3" x2="571.8" y2="267.1"/>
		<line class="st6" x1="576.7" y1="268.5" x2="580.8" y2="270.2"/>
		<line class="st6" x1="574.2" y1="269.5" x2="574.2" y2="273.9"/>
		<line class="st6" x1="576.5" y1="265.3" x2="581" y2="265.3"/>
		<line class="st6" x1="565.8" y1="265.3" x2="570.9" y2="265.3"/>
		<line class="st6" x1="569.8" y1="260.4" x2="571.9" y2="262.8"/>
	</g>
	<g class="st1">
		<line class="st6" x1="565.3" y1="395.2" x2="568.4" y2="392"/>
		<line class="st6" x1="560.5" y1="402" x2="563.5" y2="398.7"/>
		<line class="st6" x1="568.4" y1="400.1" x2="572.5" y2="401.9"/>
		<line class="st6" x1="566" y1="401.1" x2="566" y2="405.5"/>
		<line class="st6" x1="568.2" y1="396.9" x2="572.7" y2="396.9"/>
		<line class="st6" x1="557.6" y1="396.9" x2="562.6" y2="396.9"/>
		<line class="st6" x1="561.5" y1="392" x2="563.6" y2="394.5"/>
	</g>
	<g class="st1">
		<line class="st6" x1="482" y1="500.8" x2="485" y2="497.5"/>
		<line class="st6" x1="477.1" y1="507.5" x2="480.2" y2="504.3"/>
		<line class="st6" x1="485.1" y1="505.7" x2="489.2" y2="507.5"/>
		<line class="st6" x1="482.6" y1="506.7" x2="482.6" y2="511.1"/>
		<line class="st6" x1="484.9" y1="502.5" x2="489.3" y2="502.5"/>
		<line class="st6" x1="474.2" y1="502.5" x2="479.3" y2="502.5"/>
		<line class="st6" x1="478.2" y1="497.6" x2="480.3" y2="500.1"/>
	</g>
	<g class="st1">
		<line class="st6" x1="307.6" y1="491.9" x2="310.6" y2="488.7"/>
		<line class="st6" x1="302.7" y1="498.7" x2="305.7" y2="495.4"/>
		<line class="st6" x1="310.6" y1="496.8" x2="314.7" y2="498.6"/>
		<line class="st6" x1="308.2" y1="497.8" x2="308.2" y2="502.3"/>
		<line class="st6" x1="310.5" y1="493.6" x2="314.9" y2="493.6"/>
		<line class="st6" x1="299.8" y1="493.6" x2="304.9" y2="493.6"/>
		<line class="st6" x1="303.8" y1="488.8" x2="305.9" y2="491.2"/>
	</g>
	<g class="st1">
		<line class="st6" x1="176" y1="419.7" x2="179" y2="416.5"/>
		<line class="st6" x1="171.1" y1="426.5" x2="174.2" y2="423.2"/>
		<line class="st6" x1="179.1" y1="424.6" x2="183.2" y2="426.4"/>
		<line class="st6" x1="176.6" y1="425.6" x2="176.6" y2="430.1"/>
		<line class="st6" x1="178.9" y1="421.4" x2="183.3" y2="421.4"/>
		<line class="st6" x1="168.2" y1="421.4" x2="173.3" y2="421.4"/>
		<line class="st6" x1="172.2" y1="416.6" x2="174.3" y2="419"/>
	</g>
	<g class="st1">
		<line class="st6" x1="227.5" y1="323.7" x2="230.5" y2="320.4"/>
		<line class="st6" x1="222.6" y1="330.4" x2="225.6" y2="327.2"/>
		<line class="st6" x1="230.6" y1="328.6" x2="234.6" y2="330.4"/>
		<line class="st6" x1="228.1" y1="329.6" x2="228.1" y2="334"/>
		<line class="st6" x1="230.4" y1="325.4" x2="234.8" y2="325.4"/>
		<line class="st6" x1="219.7" y1="325.4" x2="224.8" y2="325.4"/>
		<line class="st6" x1="223.7" y1="320.5" x2="225.8" y2="323"/>
	</g>
	<g class="st1">
		<line class="st6" x1="152.7" y1="241.5" x2="155.7" y2="238.2"/>
		<line class="st6" x1="147.9" y1="248.2" x2="150.9" y2="245"/>
		<line class="st6" x1="155.8" y1="246.4" x2="159.9" y2="248.2"/>
		<line class="st6" x1="153.4" y1="247.4" x2="153.4" y2="251.8"/>
		<line class="st6" x1="155.6" y1="243.2" x2="160.1" y2="243.2"/>
		<line class="st6" x1="145" y1="243.2" x2="150" y2="243.2"/>
		<line class="st6" x1="148.9" y1="238.3" x2="151" y2="240.8"/>
	</g>
	<g class="st1">
		<line class="st6" x1="224.4" y1="151.7" x2="227.4" y2="148.5"/>
		<line class="st6" x1="219.5" y1="158.5" x2="222.5" y2="155.2"/>
		<line class="st6" x1="227.4" y1="156.6" x2="231.5" y2="158.4"/>
		<line class="st6" x1="225" y1="157.6" x2="225" y2="162.1"/>
		<line class="st6" x1="227.2" y1="153.4" x2="231.7" y2="153.4"/>
		<line class="st6" x1="216.6" y1="153.4" x2="221.6" y2="153.4"/>
		<line class="st6" x1="220.5" y1="148.6" x2="222.6" y2="151"/>
	</g>
	<g class="st1">
		<line class="st6" x1="538" y1="129.4" x2="541" y2="126.1"/>
		<line class="st6" x1="533.2" y1="136.1" x2="536.2" y2="132.9"/>
		<line class="st6" x1="541.1" y1="134.3" x2="545.2" y2="136"/>
		<line class="st6" x1="538.6" y1="135.3" x2="538.6" y2="139.7"/>
		<line class="st6" x1="540.9" y1="131.1" x2="545.4" y2="131.1"/>
		<line class="st6" x1="530.2" y1="131.1" x2="535.3" y2="131.1"/>
		<line class="st6" x1="534.2" y1="126.2" x2="536.3" y2="128.6"/>
	</g>
	<circle class="st7" cx="538.1" cy="315.6" r="2.8"/>
	<circle class="st7" cx="566.4" cy="294.8" r="2.8"/>
	<circle class="st7" cx="232.6" cy="441.2" r="2.8"/>
	<circle class="st7" cx="220.1" cy="283.2" r="2.8"/>
	<circle class="st7" cx="127.6" cy="317.2" r="2.8"/>
	<circle class="st7" cx="170.8" cy="159.8" r="2.8"/>
	<circle class="st7" cx="369.5" cy="128.1" r="2.8"/>
	<circle class="st7" cx="372.3" cy="483.2" r="2.8"/>
	<circle class="st7" cx="532.8" cy="491" r="2.8"/>
	<circle class="st8" cx="337" cy="483.3" r="2.8"/>
	<circle class="st8" cx="352.7" cy="514.8" r="2.8"/>
	<circle class="st8" cx="265.6" cy="160.7" r="2.8"/>
	<circle class="st8" cx="423.4" cy="175.6" r="2.8"/>
	<circle class="st8" cx="405.8" cy="78.6" r="2.8"/>
	<circle class="st8" cx="553.5" cy="148.1" r="2.8"/>
	<circle class="st8" cx="550.6" cy="349.4" r="2.8"/>
	<circle class="st8" cx="200.4" cy="291.2" r="2.8"/>
	<circle class="st8" cx="165.1" cy="448" r="2.8"/>
	<circle class="st7" cx="538" cy="440.1" r="1.8"/>
	<circle class="st7" cx="206.9" cy="407.3" r="1.8"/>
	<circle class="st8" cx="184.3" cy="400.1" r="1.8"/>
	<circle class="st8" cx="442.8" cy="466.6" r="1.8"/>
	<circle class="st8" cx="196.1" cy="273.5" r="1.8"/>
	<g class="st1">
		<line class="st6" x1="160.3" y1="343.7" x2="163.3" y2="340.4"/>
		<line class="st6" x1="155.4" y1="350.4" x2="158.4" y2="347.2"/>
		<line class="st6" x1="163.4" y1="348.6" x2="167.4" y2="350.4"/>
		<line class="st6" x1="160.9" y1="349.6" x2="160.9" y2="354"/>
		<line class="st6" x1="163.2" y1="345.4" x2="167.6" y2="345.4"/>
		<line class="st6" x1="152.5" y1="345.4" x2="157.6" y2="345.4"/>
		<line class="st6" x1="156.5" y1="340.5" x2="158.6" y2="343"/>
	</g>
	<g class="st1">
		<line class="st6" x1="375.3" y1="177.6" x2="378.3" y2="174.4"/>
		<line class="st6" x1="370.5" y1="184.4" x2="373.5" y2="181.2"/>
		<line class="st6" x1="378.4" y1="182.6" x2="382.5" y2="184.3"/>
		<line class="st6" x1="375.9" y1="183.6" x2="375.9" y2="188"/>
		<line class="st6" x1="378.2" y1="179.3" x2="382.7" y2="179.3"/>
		<line class="st6" x1="367.5" y1="179.3" x2="372.6" y2="179.3"/>
		<line class="st6" x1="371.5" y1="174.5" x2="373.6" y2="176.9"/>
	</g>
</g>
<g id="Layer_2" class="st0">
	<g class="st1">
		<line class="st4" x1="256.8" y1="397.2" x2="267.9" y2="388.2"/>
		<line class="st4" x1="256.8" y1="411.3" x2="282.4" y2="386.9"/>
		<line class="st4" x1="257.2" y1="423.5" x2="294.3" y2="388.2"/>
		<line class="st4" x1="257.3" y1="435.5" x2="309.3" y2="388.2"/>
		<line class="st4" x1="256.9" y1="446.4" x2="323.7" y2="385.7"/>
		<line class="st4" x1="256.8" y1="461" x2="337.5" y2="385.7"/>
		<line class="st4" x1="269.8" y1="459.4" x2="349" y2="387.5"/>
		<line class="st4" x1="282.8" y1="459.4" x2="360.5" y2="388.8"/>
		<line class="st4" x1="296.1" y1="459.4" x2="373.2" y2="389.4"/>
		<line class="st4" x1="312" y1="457.9" x2="387.6" y2="389.2"/>
		<line class="st4" x1="392.8" y1="424.8" x2="435.2" y2="386.3"/>
		<line class="st4" x1="405.6" y1="424.8" x2="448" y2="386.3"/>
		<line class="st4" x1="403.6" y1="438.1" x2="461.4" y2="385.5"/>
		<line class="st4" x1="408.8" y1="457.9" x2="485" y2="388.6"/>
		<line class="st4" x1="420.4" y1="459.4" x2="499.6" y2="387.7"/>
		<line class="st4" x1="434" y1="460" x2="515.9" y2="385.5"/>
		<line class="st4" x1="449.5" y1="459" x2="523.9" y2="389.6"/>
		<line class="st4" x1="473" y1="461" x2="523.9" y2="413.3"/>
		<line class="st4" x1="460" y1="461" x2="523.7" y2="402"/>
		<line class="st4" x1="415.5" y1="439.5" x2="473.3" y2="386.9"/>
		<line class="st4" x1="321.7" y1="461.5" x2="397.3" y2="392.8"/>
		<line class="st4" x1="336.6" y1="458.8" x2="412.1" y2="390.1"/>
		<rect x="359.5" y="384.4" class="st5" width="60.9" height="76"/>
		<line class="st4" x1="500.5" y1="460.4" x2="524.3" y2="438.9"/>
		<line class="st4" x1="488.5" y1="459.5" x2="524.7" y2="426.6"/>
		<line class="st4" x1="512.8" y1="461.4" x2="523.8" y2="451.9"/>
		<rect x="256.8" y="384.4" class="st4" width="267.1" height="76.6"/>
	</g>
	<g class="st1">
		<g>
			<path class="st2" d="M379.1,233L305,158.1c0,0-6.8-8.4-8.8-1.6c-2,6.8,3.2,15-4.4,23.1c-7.6,8.1-18,12.1-8.4,38.5
				c10,12.4,98.9,25.6,98.9,25.6L379.1,233z"/>
			<path class="st3" d="M382.3,233.1c0,0-19.2-34.8-35.6-50.9s-39.6-34.4-45.6-31c-6,3.3-2,12.8,13.6,29s34.4,38.9,46,44.7
				S382.3,233.1,382.3,233.1z"/>
			<path class="st2" d="M390.4,240.1c0,0,78.8-89.4,83.8-86.3c5,3.1,5.8,18.1,7.2,22.5c1.4,4.4,9.7,8.6,13.6,18
				c3.9,9.4,3.3,18.5-4.7,24.3c-8,5.8-48.4,19.7-68.9,21.5S390.4,240.1,390.4,240.1z"/>
			<path class="st3" d="M390.4,236.1c0,0,4.6-26.4,37-56.5s42.1-30.6,45.7-28.8c3.6,1.8,6.4,10.1-9.4,25.3
				c-15.8,15.2-28.2,27.9-42.1,37.9S390.4,236.1,390.4,236.1z"/>
			<circle class="st2" cx="385.5" cy="233.1" r="11"/>
		</g>
		<g>
			<line class="st4" x1="255.7" y1="249.2" x2="266.8" y2="240.3"/>
			<line class="st4" x1="255.7" y1="263.3" x2="277" y2="243"/>
			<line class="st4" x1="258.4" y1="271.9" x2="291.6" y2="240.3"/>
			<line class="st4" x1="263.4" y1="281" x2="308.1" y2="240.3"/>
			<line class="st4" x1="275" y1="281" x2="319.8" y2="240.3"/>
			<line class="st4" x1="289.7" y1="280.3" x2="332.1" y2="241.7"/>
			<line class="st4" x1="303.7" y1="279.6" x2="346.1" y2="241.1"/>
			<line class="st4" x1="317" y1="279.4" x2="359.4" y2="240.8"/>
			<line class="st4" x1="329.7" y1="279.9" x2="372.1" y2="241.4"/>
			<line class="st4" x1="344.1" y1="279.7" x2="386.5" y2="241.2"/>
			<line class="st4" x1="389.3" y1="278.9" x2="431.7" y2="240.4"/>
			<line class="st4" x1="400.9" y1="280" x2="443.3" y2="241.5"/>
			<line class="st4" x1="412.6" y1="280.9" x2="455" y2="242.3"/>
			<line class="st4" x1="441.5" y1="279.2" x2="483.9" y2="240.6"/>
			<line class="st4" x1="455.1" y1="279.2" x2="497.4" y2="240.7"/>
			<line class="st4" x1="469.2" y1="278.9" x2="511.6" y2="240.4"/>
			<line class="st4" x1="480.4" y1="280.2" x2="522.8" y2="241.6"/>
			<line class="st4" x1="506" y1="280.5" x2="522.7" y2="265.3"/>
			<line class="st4" x1="493.8" y1="280.2" x2="522.6" y2="254"/>
			<line class="st4" x1="428" y1="280.5" x2="470.4" y2="241.9"/>
			<rect x="358.3" y="238.9" class="st5" width="60.9" height="42.1"/>
			<rect x="255.7" y="240.3" class="st4" width="267.1" height="40.7"/>
		</g>
	</g>
	<rect x="309.8" y="298.3" class="st9" width="150.4" height="68.8"/>
	<text transform="matrix(1.24 0 0 1 309.8165 359.3777)" class="st10 st11 st12 st13">Gif</text>
	
		<image style="display:inline;overflow:visible;" width="225" height="225" xlink:href="../../../../Downloads/images-2.jpeg"  transform="matrix(1 0 0 1 812 337.0255)">
	</image>
	<g class="st1">
		<line class="st6" x1="573.6" y1="264.4" x2="576.6" y2="261.1"/>
		<line class="st6" x1="568.7" y1="271.2" x2="571.7" y2="267.9"/>
		<line class="st6" x1="576.7" y1="269.3" x2="580.8" y2="271.1"/>
		<line class="st6" x1="574.2" y1="270.3" x2="574.2" y2="274.8"/>
		<line class="st6" x1="576.5" y1="266.1" x2="581" y2="266.1"/>
		<line class="st6" x1="565.7" y1="266.1" x2="570.8" y2="266.1"/>
		<line class="st6" x1="569.7" y1="261.2" x2="571.8" y2="263.6"/>
	</g>
	<g class="st1">
		<line class="st6" x1="565.2" y1="397.1" x2="568.2" y2="393.9"/>
		<line class="st6" x1="560.3" y1="404" x2="563.3" y2="400.7"/>
		<line class="st6" x1="568.3" y1="402.1" x2="572.4" y2="403.9"/>
		<line class="st6" x1="565.8" y1="403.1" x2="565.8" y2="407.6"/>
		<line class="st6" x1="568.1" y1="398.9" x2="572.6" y2="398.9"/>
		<line class="st6" x1="557.4" y1="398.9" x2="562.5" y2="398.9"/>
		<line class="st6" x1="561.4" y1="394" x2="563.5" y2="396.4"/>
	</g>
	<g class="st1">
		<line class="st6" x1="481.2" y1="503.6" x2="484.2" y2="500.3"/>
		<line class="st6" x1="476.3" y1="510.4" x2="479.3" y2="507.2"/>
		<line class="st6" x1="484.3" y1="508.6" x2="488.4" y2="510.4"/>
		<line class="st6" x1="481.8" y1="509.6" x2="481.8" y2="514.1"/>
		<line class="st6" x1="484.1" y1="505.3" x2="488.5" y2="505.3"/>
		<line class="st6" x1="473.3" y1="505.3" x2="478.4" y2="505.3"/>
		<line class="st6" x1="477.3" y1="500.4" x2="479.4" y2="502.9"/>
	</g>
	<g class="st1">
		<line class="st6" x1="305.2" y1="494.7" x2="308.2" y2="491.4"/>
		<line class="st6" x1="300.3" y1="501.5" x2="303.3" y2="498.2"/>
		<line class="st6" x1="308.3" y1="499.7" x2="312.4" y2="501.4"/>
		<line class="st6" x1="305.8" y1="500.7" x2="305.8" y2="505.1"/>
		<line class="st6" x1="308.1" y1="496.4" x2="312.6" y2="496.4"/>
		<line class="st6" x1="297.4" y1="496.4" x2="302.5" y2="496.4"/>
		<line class="st6" x1="301.4" y1="491.5" x2="303.5" y2="494"/>
	</g>
	<g class="st1">
		<line class="st6" x1="172.5" y1="421.9" x2="175.5" y2="418.6"/>
		<line class="st6" x1="167.6" y1="428.7" x2="170.6" y2="425.4"/>
		<line class="st6" x1="175.6" y1="426.8" x2="179.7" y2="428.6"/>
		<line class="st6" x1="173.1" y1="427.8" x2="173.1" y2="432.3"/>
		<line class="st6" x1="175.4" y1="423.6" x2="179.9" y2="423.6"/>
		<line class="st6" x1="164.7" y1="423.6" x2="169.8" y2="423.6"/>
		<line class="st6" x1="168.7" y1="418.7" x2="170.8" y2="421.1"/>
	</g>
	<g class="st1">
		<line class="st6" x1="224.4" y1="325" x2="227.5" y2="321.7"/>
		<line class="st6" x1="219.5" y1="331.8" x2="222.6" y2="328.5"/>
		<line class="st6" x1="227.5" y1="330" x2="231.6" y2="331.7"/>
		<line class="st6" x1="225" y1="331" x2="225" y2="335.4"/>
		<line class="st6" x1="227.3" y1="326.7" x2="231.8" y2="326.7"/>
		<line class="st6" x1="216.6" y1="326.7" x2="221.7" y2="326.7"/>
		<line class="st6" x1="220.6" y1="321.8" x2="222.7" y2="324.3"/>
	</g>
	<g class="st1">
		<line class="st6" x1="149" y1="242.1" x2="152.1" y2="238.8"/>
		<line class="st6" x1="144.1" y1="248.9" x2="147.2" y2="245.6"/>
		<line class="st6" x1="152.1" y1="247.1" x2="156.3" y2="248.8"/>
		<line class="st6" x1="149.7" y1="248.1" x2="149.7" y2="252.5"/>
		<line class="st6" x1="152" y1="243.8" x2="156.4" y2="243.8"/>
		<line class="st6" x1="141.2" y1="243.8" x2="146.3" y2="243.8"/>
		<line class="st6" x1="145.2" y1="238.9" x2="147.3" y2="241.4"/>
	</g>
	<g class="st1">
		<line class="st6" x1="221.3" y1="151.6" x2="224.3" y2="148.3"/>
		<line class="st6" x1="216.4" y1="158.4" x2="219.4" y2="155.1"/>
		<line class="st6" x1="224.4" y1="156.5" x2="228.5" y2="158.3"/>
		<line class="st6" x1="221.9" y1="157.5" x2="221.9" y2="162"/>
		<line class="st6" x1="224.2" y1="153.3" x2="228.7" y2="153.3"/>
		<line class="st6" x1="213.4" y1="153.3" x2="218.5" y2="153.3"/>
		<line class="st6" x1="217.4" y1="148.4" x2="219.5" y2="150.8"/>
	</g>
	<g class="st1">
		<line class="st6" x1="537.7" y1="129" x2="540.7" y2="125.7"/>
		<line class="st6" x1="532.8" y1="135.8" x2="535.8" y2="132.5"/>
		<line class="st6" x1="540.8" y1="134" x2="544.9" y2="135.7"/>
		<line class="st6" x1="538.3" y1="135" x2="538.3" y2="139.4"/>
		<line class="st6" x1="540.6" y1="130.7" x2="545.1" y2="130.7"/>
		<line class="st6" x1="529.8" y1="130.7" x2="534.9" y2="130.7"/>
		<line class="st6" x1="533.8" y1="125.8" x2="535.9" y2="128.3"/>
	</g>
	<circle class="st7" cx="537.8" cy="316.8" r="2.8"/>
	<circle class="st7" cx="566.3" cy="295.8" r="2.8"/>
	<circle class="st7" cx="229.6" cy="443.6" r="2.8"/>
	<circle class="st7" cx="217" cy="284.2" r="2.8"/>
	<circle class="st7" cx="123.7" cy="318.5" r="2.8"/>
	<circle class="st7" cx="167.2" cy="159.8" r="2.8"/>
	<circle class="st7" cx="367.7" cy="127.7" r="2.8"/>
	<circle class="st7" cx="370.5" cy="485.9" r="2.8"/>
	<circle class="st7" cx="532.4" cy="493.7" r="2.8"/>
	<circle class="st8" cx="334.9" cy="486" r="2.8"/>
	<circle class="st8" cx="350.7" cy="517.7" r="2.8"/>
	<circle class="st8" cx="262.9" cy="160.7" r="2.8"/>
	<circle class="st8" cx="422.1" cy="175.6" r="2.8"/>
	<circle class="st8" cx="404.3" cy="77.8" r="2.8"/>
	<circle class="st8" cx="553.2" cy="147.9" r="2.8"/>
	<circle class="st8" cx="550.4" cy="350.9" r="2.8"/>
	<circle class="st8" cx="197.1" cy="292.2" r="2.8"/>
	<circle class="st8" cx="161.5" cy="450.4" r="2.8"/>
	<circle class="st7" cx="537.6" cy="442.5" r="1.8"/>
	<circle class="st7" cx="203.7" cy="409.3" r="1.8"/>
	<circle class="st8" cx="180.8" cy="402.1" r="1.8"/>
	<circle class="st8" cx="441.6" cy="469.2" r="1.8"/>
	<circle class="st8" cx="192.8" cy="274.4" r="1.8"/>
	<g class="st1">
		<line class="st6" x1="156.7" y1="345.2" x2="159.7" y2="341.9"/>
		<line class="st6" x1="151.8" y1="352" x2="154.8" y2="348.7"/>
		<line class="st6" x1="159.8" y1="350.1" x2="163.9" y2="351.9"/>
		<line class="st6" x1="157.3" y1="351.1" x2="157.3" y2="355.6"/>
		<line class="st6" x1="159.6" y1="346.9" x2="164.1" y2="346.9"/>
		<line class="st6" x1="148.8" y1="346.9" x2="153.9" y2="346.9"/>
		<line class="st6" x1="152.8" y1="342" x2="154.9" y2="344.5"/>
	</g>
	<circle class="st1" cx="164.1" cy="207.9" r="2.8"/>
	<circle class="st1" cx="216.6" cy="224.6" r="2.8"/>
	<circle class="st1" cx="538.3" cy="207.9" r="2.8"/>
</g>
<g id="Layer_3">
	<g>
		<line class="st4" x1="253" y1="399.4" x2="264" y2="390.6"/>
		<line class="st4" x1="253" y1="413.4" x2="278.3" y2="389.2"/>
		<line class="st4" x1="253.5" y1="425.4" x2="290.1" y2="390.6"/>
		<line class="st4" x1="253.6" y1="437.2" x2="304.9" y2="390.6"/>
		<line class="st4" x1="253.2" y1="448" x2="319.1" y2="388.1"/>
		<line class="st4" x1="253" y1="462.4" x2="332.8" y2="388.1"/>
		<line class="st4" x1="265.9" y1="460.9" x2="344.1" y2="389.8"/>
		<line class="st4" x1="278.8" y1="460.9" x2="355.5" y2="391.2"/>
		<line class="st4" x1="291.9" y1="460.9" x2="368" y2="391.7"/>
		<line class="st4" x1="307.6" y1="459.4" x2="382.2" y2="391.5"/>
		<line class="st4" x1="387.4" y1="426.7" x2="429.2" y2="388.6"/>
		<line class="st4" x1="400" y1="426.7" x2="441.9" y2="388.6"/>
		<line class="st4" x1="398" y1="439.8" x2="455.1" y2="387.9"/>
		<line class="st4" x1="403.2" y1="459.4" x2="478.5" y2="390.9"/>
		<line class="st4" x1="414.6" y1="460.9" x2="492.9" y2="390.1"/>
		<line class="st4" x1="428.1" y1="461.4" x2="509" y2="387.9"/>
		<line class="st4" x1="443.5" y1="460.5" x2="516.9" y2="391.9"/>
		<line class="st4" x1="466.7" y1="462.4" x2="516.9" y2="415.3"/>
		<line class="st4" x1="453.7" y1="462.4" x2="516.7" y2="404.2"/>
		<line class="st4" x1="409.9" y1="441.2" x2="467" y2="389.2"/>
		<line class="st4" x1="317.1" y1="462.9" x2="391.8" y2="395"/>
		<line class="st4" x1="331.8" y1="460.2" x2="406.5" y2="392.4"/>
		<rect x="354.5" y="386.8" class="st14" width="60.2" height="75.1"/>
		<line class="st4" x1="493.8" y1="461.8" x2="517.3" y2="440.6"/>
		<line class="st4" x1="481.9" y1="460.9" x2="517.6" y2="428.4"/>
		<line class="st4" x1="505.9" y1="462.8" x2="516.8" y2="453.5"/>
		<rect x="253" y="386.8" class="st4" width="263.8" height="75.6"/>
	</g>
	<g>
		<g>
			<path class="st15" d="M382,174.4l-73.2-74c0,0-6.7-8.3-8.7-1.6c-2,6.7,3.2,14.8-4.4,22.8s-17.8,12-8.3,38.1
				c9.9,12.3,97.7,25.3,97.7,25.3L382,174.4z"/>
			<path class="st3" d="M385.1,174.6c0,0-18.9-34.3-35.2-50.3c-16.2-15.9-39.2-33.9-45.1-30.7s-2,12.7,13.4,28.6s34,38.4,45.5,44.2
				C375.3,172.1,385.1,174.6,385.1,174.6z"/>
			<path class="st15" d="M393.1,181.5c0,0,77.8-88.4,82.8-85.2c4.9,3.1,5.7,17.9,7.1,22.2s9.6,8.5,13.4,17.8
				c3.8,9.3,3.3,18.3-4.6,24.1s-47.8,19.4-68.1,21.2C403.4,183.2,393.1,181.5,393.1,181.5z"/>
			<path class="st3" d="M393.1,177.5c0,0,4.6-26.1,36.6-55.8s41.5-30.2,45.1-28.5c3.6,1.7,6.3,9.9-9.3,25s-27.9,27.6-41.5,37.4
				C410.2,165.5,393.1,177.5,393.1,177.5z"/>
			<circle class="st15" cx="388.3" cy="174.6" r="10.9"/>
		</g>
		<g>
			<line class="st4" x1="260" y1="190.4" x2="271" y2="181.6"/>
			<line class="st4" x1="260" y1="204.4" x2="281.1" y2="184.3"/>
			<line class="st4" x1="262.7" y1="212.8" x2="295.5" y2="181.6"/>
			<line class="st4" x1="267.6" y1="221.8" x2="311.9" y2="181.6"/>
			<line class="st4" x1="279.1" y1="221.8" x2="323.3" y2="181.6"/>
			<line class="st4" x1="293.6" y1="221.1" x2="335.5" y2="183"/>
			<line class="st4" x1="307.5" y1="220.5" x2="349.4" y2="182.4"/>
			<line class="st4" x1="320.6" y1="220.2" x2="362.5" y2="182.2"/>
			<line class="st4" x1="333.1" y1="220.8" x2="375" y2="182.7"/>
			<line class="st4" x1="347.3" y1="220.6" x2="389.2" y2="182.5"/>
			<line class="st4" x1="392" y1="219.8" x2="433.9" y2="181.7"/>
			<line class="st4" x1="403.5" y1="220.9" x2="445.4" y2="182.8"/>
			<line class="st4" x1="415" y1="221.7" x2="456.9" y2="183.7"/>
			<line class="st4" x1="443.6" y1="220" x2="485.5" y2="181.9"/>
			<line class="st4" x1="457" y1="220.1" x2="498.9" y2="182"/>
			<line class="st4" x1="471" y1="219.8" x2="512.8" y2="181.7"/>
			<line class="st4" x1="482" y1="221" x2="523.9" y2="182.9"/>
			<line class="st4" x1="507.3" y1="221.3" x2="523.8" y2="206.3"/>
			<line class="st4" x1="495.2" y1="221" x2="523.7" y2="195.2"/>
			<line class="st4" x1="430.2" y1="221.3" x2="472.1" y2="183.2"/>
			<rect x="361.4" y="180.2" class="st14" width="60.2" height="41.6"/>
			<rect x="260" y="181.6" class="st4" width="263.8" height="40.2"/>
		</g>
	</g>
	<rect x="303.2" y="257.4" class="st16" width="205.3" height="67.9"/>
	<text transform="matrix(1.24 0 0 1 303.2254 317.6924)" class="st17 st11 st18 st13">Gifts</text>
	<text transform="matrix(1 0 0 1 259.2554 246.1175)" class="st19 st20">WHAT</text>
	<g>
		<line class="st6" x1="591.2" y1="276.5" x2="594.2" y2="273.2"/>
		<line class="st6" x1="586.3" y1="283.3" x2="589.3" y2="280"/>
		<line class="st6" x1="594.3" y1="281.5" x2="598.4" y2="283.2"/>
		<line class="st6" x1="591.8" y1="282.5" x2="591.8" y2="286.9"/>
		<line class="st6" x1="594.1" y1="278.2" x2="598.6" y2="278.2"/>
		<line class="st6" x1="583.4" y1="278.2" x2="588.5" y2="278.2"/>
		<line class="st6" x1="587.4" y1="273.3" x2="589.5" y2="275.8"/>
	</g>
	<g>
		<line class="st6" x1="582.9" y1="412.3" x2="585.9" y2="409"/>
		<line class="st6" x1="578" y1="419.1" x2="581" y2="415.8"/>
		<line class="st6" x1="586" y1="417.2" x2="590.1" y2="419"/>
		<line class="st6" x1="583.5" y1="418.2" x2="583.5" y2="422.7"/>
		<line class="st6" x1="585.8" y1="414" x2="590.2" y2="414"/>
		<line class="st6" x1="575" y1="414" x2="580.1" y2="414"/>
		<line class="st6" x1="579" y1="409.1" x2="581.1" y2="411.5"/>
	</g>
	<g>
		<line class="st6" x1="494.1" y1="514.3" x2="497.1" y2="511.1"/>
		<line class="st6" x1="489.1" y1="521.2" x2="492.2" y2="517.9"/>
		<line class="st6" x1="497.2" y1="519.3" x2="501.3" y2="521.1"/>
		<line class="st6" x1="494.7" y1="520.3" x2="494.7" y2="524.8"/>
		<line class="st6" x1="497" y1="516.1" x2="501.4" y2="516.1"/>
		<line class="st6" x1="486.2" y1="516.1" x2="491.3" y2="516.1"/>
		<line class="st6" x1="490.2" y1="511.2" x2="492.3" y2="513.6"/>
	</g>
	<g>
		<line class="st6" x1="318.1" y1="505.4" x2="321.1" y2="502.1"/>
		<line class="st6" x1="313.2" y1="512.2" x2="316.2" y2="509"/>
		<line class="st6" x1="321.2" y1="510.4" x2="325.3" y2="512.2"/>
		<line class="st6" x1="318.7" y1="511.4" x2="318.7" y2="515.8"/>
		<line class="st6" x1="321" y1="507.1" x2="325.5" y2="507.1"/>
		<line class="st6" x1="310.3" y1="507.1" x2="315.4" y2="507.1"/>
		<line class="st6" x1="314.3" y1="502.2" x2="316.4" y2="504.7"/>
	</g>
	<g>
		<line class="st6" x1="190.2" y1="434" x2="193.2" y2="430.7"/>
		<line class="st6" x1="185.3" y1="440.8" x2="188.3" y2="437.5"/>
		<line class="st6" x1="193.3" y1="439" x2="197.4" y2="440.7"/>
		<line class="st6" x1="190.8" y1="440" x2="190.8" y2="444.4"/>
		<line class="st6" x1="193.1" y1="435.7" x2="197.6" y2="435.7"/>
		<line class="st6" x1="182.3" y1="435.7" x2="187.4" y2="435.7"/>
		<line class="st6" x1="186.3" y1="430.8" x2="188.4" y2="433.3"/>
	</g>
	<g>
		<line class="st6" x1="223.4" y1="344" x2="226.4" y2="340.7"/>
		<line class="st6" x1="218.5" y1="350.8" x2="221.5" y2="347.5"/>
		<line class="st6" x1="226.5" y1="348.9" x2="230.6" y2="350.7"/>
		<line class="st6" x1="224" y1="349.9" x2="224" y2="354.4"/>
		<line class="st6" x1="226.3" y1="345.7" x2="230.8" y2="345.7"/>
		<line class="st6" x1="215.5" y1="345.7" x2="220.6" y2="345.7"/>
		<line class="st6" x1="219.5" y1="340.8" x2="221.6" y2="343.3"/>
	</g>
	<g>
		<line class="st6" x1="166.7" y1="254.2" x2="169.7" y2="250.9"/>
		<line class="st6" x1="161.8" y1="261" x2="164.8" y2="257.7"/>
		<line class="st6" x1="169.8" y1="259.2" x2="173.9" y2="260.9"/>
		<line class="st6" x1="167.3" y1="260.2" x2="167.3" y2="264.6"/>
		<line class="st6" x1="169.6" y1="255.9" x2="174.1" y2="255.9"/>
		<line class="st6" x1="158.8" y1="255.9" x2="164" y2="255.9"/>
		<line class="st6" x1="162.9" y1="251" x2="165" y2="253.5"/>
	</g>
	<g>
		<line class="st6" x1="238.9" y1="163.7" x2="242" y2="160.4"/>
		<line class="st6" x1="234" y1="170.5" x2="237.1" y2="167.2"/>
		<line class="st6" x1="242" y1="168.6" x2="246.1" y2="170.4"/>
		<line class="st6" x1="239.5" y1="169.6" x2="239.5" y2="174.1"/>
		<line class="st6" x1="241.8" y1="165.4" x2="246.3" y2="165.4"/>
		<line class="st6" x1="231.1" y1="165.4" x2="236.2" y2="165.4"/>
		<line class="st6" x1="235.1" y1="160.5" x2="237.2" y2="163"/>
	</g>
	<g>
		<line class="st6" x1="555.3" y1="141.1" x2="558.4" y2="137.8"/>
		<line class="st6" x1="550.4" y1="148" x2="553.4" y2="144.7"/>
		<line class="st6" x1="558.4" y1="146.1" x2="562.5" y2="147.9"/>
		<line class="st6" x1="555.9" y1="147.1" x2="555.9" y2="151.6"/>
		<line class="st6" x1="558.2" y1="142.8" x2="562.7" y2="142.8"/>
		<line class="st6" x1="547.5" y1="142.8" x2="552.6" y2="142.8"/>
		<line class="st6" x1="551.5" y1="137.9" x2="553.6" y2="140.4"/>
	</g>
	<g>
		<circle class="st21" cx="347.8" cy="496.7" r="2.8"/>
		<circle class="st21" cx="363.6" cy="528.4" r="2.8"/>
		<circle class="st21" cx="280.6" cy="172.8" r="2.8"/>
		<circle class="st21" cx="511.4" cy="157.2" r="2.8"/>
		<circle class="st21" cx="570.9" cy="160.1" r="2.8"/>
		<circle class="st21" cx="568" cy="366" r="2.8"/>
		<circle class="st21" cx="214.7" cy="304.4" r="2.8"/>
		<circle class="st21" cx="179.2" cy="462.5" r="2.8"/>
		<circle class="st21" cx="198.5" cy="414.2" r="1.8"/>
		<circle class="st21" cx="454.5" cy="479.9" r="1.8"/>
		<circle class="st21" cx="210.4" cy="286.5" r="1.8"/>
	</g>
	<g>
		<line class="st6" x1="174.3" y1="357.3" x2="177.4" y2="354"/>
		<line class="st6" x1="169.4" y1="364.1" x2="172.4" y2="360.8"/>
		<line class="st6" x1="177.4" y1="362.3" x2="181.5" y2="364"/>
		<line class="st6" x1="174.9" y1="363.3" x2="174.9" y2="367.7"/>
		<line class="st6" x1="177.2" y1="359" x2="181.7" y2="359"/>
		<line class="st6" x1="166.5" y1="359" x2="171.6" y2="359"/>
		<line class="st6" x1="170.5" y1="354.1" x2="172.6" y2="356.6"/>
	</g>
	<g>
		<circle class="st22" cx="555.4" cy="348.9" r="2.8"/>
		<circle class="st22" cx="583.9" cy="311" r="2.8"/>
		<circle class="st22" cx="247.2" cy="455.7" r="2.8"/>
		<circle class="st22" cx="234.7" cy="296.3" r="2.8"/>
		<circle class="st22" cx="141.3" cy="330.6" r="2.8"/>
		<circle class="st22" cx="184.9" cy="171.9" r="2.8"/>
		<circle class="st22" cx="385.3" cy="139.9" r="2.8"/>
		<circle class="st22" cx="383.4" cy="496.6" r="2.8"/>
		<circle class="st22" cx="547.8" cy="474.1" r="2.8"/>
		<circle class="st22" cx="553" cy="422.8" r="1.8"/>
		<circle class="st22" cx="221.3" cy="421.4" r="1.8"/>
		<circle class="st22" cx="181.7" cy="220" r="2.8"/>
		<circle class="st22" cx="234.2" cy="236.7" r="2.8"/>
		<circle class="st22" cx="555.9" cy="220" r="2.8"/>
	</g>
	
		<image style="overflow:visible;" width="742" height="226" xlink:href="../../../../Desktop/Screen Shot 2018-10-16 at 09.49.54.png"  transform="matrix(0.5 0 0 0.5 -92.4116 -284.2075)">
	</image>
	<text transform="matrix(1 0 0 1 255.318 368.2449)" class="st19 st23">should I buy?</text>
	<rect x="886.9" y="147" class="st22" width="108.9" height="127.9"/>
</g>
</svg>
